<?xml version="1.0" encoding="utf-8"?>
<!-- Generator: Adobe Illustrator 21.1.0, SVG Export Plug-In . SVG Version: 6.00 Build 0)  -->
<svg version="1.1" id="Layer_1" xmlns="http://www.w3.org/2000/svg" xmlns:xlink="http://www.w3.org/1999/xlink" x="0px" y="0px"
	 width="160px" height="42px" viewBox="0 0 160 42" style="enable-background:new 0 0 160 42;" xml:space="preserve">
<style type="text/css">
	.st0{fill:#5E22D2;}
</style>
<g>
	<path class="st0" d="M60.8,22.1v19.1h7.8V22.1c0-2,1.4-3.5,3.5-3.5c1.2,0,3.1,0,3.1,0v-7.7c0,0-2.3,0-3.1,0
		C65.9,10.6,60.8,15.8,60.8,22.1z"/>
	<g>
		<path class="st0" d="M139.4,19.9c-0.6-1.9-1.6-3.5-2.8-4.9s-2.8-2.4-4.6-3.2s-3.9-1.1-6.3-1.1c-2.2,0-4.3,0.4-6.1,1.2
			c-1.9,0.9-3.5,2-4.8,3.4s-2.4,3.1-3.1,5c-0.8,1.9-1.1,3.9-1.1,6c0,2.3,0.4,4.3,1.1,6.2s1.9,3.5,3.2,5c1.4,1.4,3.1,2.5,5,3.2
			c1.9,0.8,4,1.1,6.2,1.1c3.3,0,6.1-0.7,8.4-2.2c1.7-1.1,3.1-2.4,4.3-4l-5.8-4.3c-0.6,0.9-1.4,1.7-2.3,2.4c-1.2,0.8-2.7,1.2-4.4,1.2
			c-0.1,0-0.2,0-0.3,0l0,0c0,0-0.7,0-1.7-0.2l0,0c-0.1,0-0.3,0-0.4-0.1c0,0-0.1,0-0.2,0c-0.9-0.2-1.7-0.7-2.4-1.2
			c-0.7-0.6-1.3-1.3-1.9-2.1c-0.5-0.9-0.8-1.9-1-3.1l0,0l0,0l0,0h15.1h6.9c0-0.2,0-0.5,0-0.7s0-0.4,0-0.7c0-0.2,0-0.4,0-0.7
			C140.3,23.8,140,21.8,139.4,19.9z M118.5,22.4L118.5,22.4L118.5,22.4L118.5,22.4c0.6-2,1.8-3.5,3.4-4.5c0.1-0.1,0.3-0.1,0.4-0.2
			l0,0c1-0.5,2.1-0.7,3.3-0.7s2.2,0.2,3.1,0.5c0.9,0.4,1.6,0.8,2.1,1.4c0.6,0.6,1,1.1,1.3,1.8c0.2,0.4,0.3,0.8,0.4,1.2
			c0,0.2,0.1,0.4,0.1,0.6L118.5,22.4L118.5,22.4z"/>
	</g>
	<path class="st0" d="M11.2,0.1C5.1,0.1,0,5.2,0,11.4v29.8h8.4V25h10.3v-7.7H8.4v-5.8c0-2,1.6-3.6,3.6-3.6h9.5V0.1H11.2z"/>
	<path class="st0" d="M94,16.9c-2.3-0.7-5.9-2-5.8-4.9c0.2-3,2.5-4.1,4.9-4.1c1.9,0,3.8,0.8,5.4,3.4l6.5-4.2
		c-3.1-4.6-7.2-6.8-11.8-6.8C87.1,0.3,80.5,4,80.3,12c-0.1,8.1,7.7,11,11.8,12c2.8,0.7,6.4,2.2,6.2,6.1c-0.1,2.6-2.3,4.3-5.4,4.2
		c-2.3,0-5.3-1-7.2-5.1l-6.5,4.2c3.9,7.3,9.6,8.5,14,8.5c6.4,0,12.6-3.7,13-11.5C106.5,21.4,100.2,18.5,94,16.9z"/>
	<path class="st0" d="M154.6,30.2V17.4h4.3V11l0,0h-4.3V3.2h-7.8V11h-2.9v6.4h2.9v13c-0.3,8,6,10.8,13.2,9.6v-6.8
		C156.6,33.7,154.6,32.2,154.6,30.2z"/>
	<g>
		<path class="st0" d="M39.9,34.5c-4.6,0-8.3-3.7-8.3-8.3s3.7-8.3,8.3-8.3c1.5,0,2.9,0.4,4.1,1.1l3.6-6.3c-2.3-1.3-4.9-2.1-7.8-2.1
			c-8.6,0-15.5,7-15.5,15.5s7,15.5,15.5,15.5c4.3,0,8.2-1.8,11-4.6l-5.1-5.1C44.3,33.6,42.2,34.5,39.9,34.5z"/>
		<path class="st0" d="M48.2,26.2c0,1.5-0.4,3-1.1,4.1l6.2,3.7c1.3-2.3,2.1-5,2.1-7.8c0-4.3-1.8-8.2-4.6-11l-5.1,5.1
			C47.3,21.9,48.2,23.9,48.2,26.2z"/>
	</g>
</g>
</svg>
